<?xml version="1.0" standalone="no"?>
<!DOCTYPE svg PUBLIC "-//W3C//DTD SVG 20010904//EN"
 "http://www.w3.org/TR/2001/REC-SVG-20010904/DTD/svg10.dtd">
<svg version="1.0" xmlns="http://www.w3.org/2000/svg"
 width="472.000000pt" height="472.000000pt" viewBox="0 0 472.000000 472.000000"
 preserveAspectRatio="xMidYMid meet">
<metadata>
Created by potrace 1.11, written by Peter Selinger 2001-2013
</metadata>
<g transform="translate(0.000000,472.000000) scale(0.100000,-0.100000)"
fill="#000000" stroke="none">
<path d="M2322 4710 c-201 -46 -390 -502 -492 -1190 -11 -74 -20 -147 -20
-162 0 -16 -4 -28 -10 -28 -5 0 -71 25 -147 56 -431 174 -836 274 -1068 261
-210 -11 -293 -79 -283 -228 12 -164 179 -397 492 -687 97 -90 338 -291 418
-348 15 -10 28 -22 28 -25 0 -4 -34 -32 -75 -63 -325 -245 -647 -563 -772
-764 -88 -141 -117 -277 -74 -348 50 -81 139 -114 312 -114 241 0 571 82 984
245 88 35 166 65 174 67 10 2 19 -34 37 -156 62 -429 141 -721 253 -951 89
-181 186 -275 282 -275 95 1 198 100 284 274 48 99 114 282 145 404 10 40 12
42 38 35 50 -14 85 -7 109 21 29 34 29 51 -2 118 l-25 53 32 7 c38 7 68 40 68
73 0 12 -7 39 -15 58 -8 20 -15 59 -15 87 0 48 1 50 29 50 40 0 76 32 96 85
l17 44 52 -20 c208 -83 528 -175 711 -204 114 -19 304 -19 372 -1 189 50 219
203 85 424 -126 208 -396 484 -732 747 -69 53 -126 98 -128 100 -1 1 71 61
160 132 211 168 385 328 504 461 338 380 370 631 86 691 -156 33 -456 -11
-778 -114 -60 -19 -112 -35 -116 -35 -4 0 -5 27 -1 60 10 104 -33 180 -102
180 l-30 0 0 103 c-1 92 -4 108 -31 167 -52 110 -128 157 -214 131 -40 -12
-76 -42 -125 -104 l-30 -38 -38 128 c-126 424 -280 630 -445 593z m71 -104
c47 -19 99 -85 156 -195 78 -153 181 -472 168 -523 -10 -37 -185 -208 -258
-250 -35 -21 -79 -40 -99 -43 -52 -8 -84 -27 -94 -57 -5 -14 -41 -60 -81 -101
-39 -41 -85 -101 -103 -134 -17 -32 -35 -64 -40 -71 -12 -18 -142 43 -142 66
0 40 53 378 81 515 81 401 220 726 339 789 41 22 33 21 73 4z m-1582 -1072
c142 -19 300 -60 504 -128 164 -56 452 -169 467 -184 5 -5 3 -80 -3 -168 -14
-190 -3 -173 -207 -326 -155 -117 -177 -143 -178 -212 0 -43 -4 -53 -32 -74
l-31 -24 -78 59 c-118 88 -298 239 -408 343 -283 266 -445 489 -445 614 0 40
5 57 20 71 50 45 199 56 391 29z m3427 1 c68 -21 96 -55 88 -110 -9 -61 -77
-189 -153 -289 -125 -166 -417 -441 -684 -644 l-96 -73 -145 101 c-129 89
-146 104 -151 133 -2 17 -15 70 -27 117 -42 156 -17 313 70 444 85 128 89 131
265 191 370 125 684 174 833 130z m-2297 -380 c34 -18 32 -25 -25 -90 l-35
-40 -1 57 c0 90 8 100 61 73z m1359 -796 c0 -6 -144 -110 -178 -128 -17 -9
-21 -4 -40 62 -24 83 -42 178 -42 219 0 28 1 28 130 -59 72 -48 130 -90 130
-94z m-1764 35 c13 -3 24 -8 24 -10 0 -5 -40 -86 -45 -92 -4 -4 -95 61 -95 67
0 12 66 50 78 45 8 -2 25 -7 38 -10z m-132 -150 c36 -25 68 -50 71 -55 4 -5 2
-33 -4 -62 -22 -107 -30 -204 -20 -240 11 -39 41 -67 74 -67 16 0 29 -18 57
-72 19 -40 67 -113 107 -163 39 -49 71 -93 71 -96 0 -15 -306 -135 -515 -202
-253 -82 -440 -117 -618 -117 -120 0 -169 11 -209 47 -49 44 2 192 123 353 80
108 328 356 484 486 145 121 292 234 305 234 5 0 38 -21 74 -46z m2111 -40
c254 -199 518 -446 638 -596 80 -101 152 -225 167 -289 26 -107 -22 -142 -200
-147 -135 -5 -249 9 -414 49 -120 30 -431 130 -516 167 l-45 19 3 51 c3 40 8
53 23 57 45 14 54 50 53 200 0 148 -19 269 -55 352 -10 25 -19 48 -19 53 0 10
230 170 245 170 6 0 60 -39 120 -86z m-1506 -1074 c15 0 37 7 49 16 21 15 26
12 125 -74 124 -108 207 -196 238 -254 31 -56 68 -77 108 -61 l29 11 7 -52
c10 -68 20 -85 62 -102 43 -18 42 -26 -17 -176 -81 -205 -180 -338 -252 -338
-71 0 -184 165 -264 387 -57 158 -122 431 -158 660 l-3 22 25 -19 c14 -11 37
-20 51 -20z"/>
</g>
</svg>
